<svg version="1.1" id="Layer_1" xmlns="http://www.w3.org/2000/svg" xmlns:xlink="http://www.w3.org/1999/xlink" x="0px" y="0px" width="50" height="50" viewBox="0 0 1024 1024" enable-background="new 0 0 1024 1024" xml:space="preserve">
  <path fill="#FF0004" opacity="1.000000" stroke="none" d="
M678.000000,1025.000000 
	C452.000000,1025.000000 226.500000,1025.000000 1.000000,1025.000000 
	C1.000000,683.666687 1.000000,342.333344 1.000000,1.000000 
	C342.333344,1.000000 683.666687,1.000000 1025.000000,1.000000 
	C1025.000000,342.333344 1025.000000,683.666687 1025.000000,1025.000000 
	C909.500000,1025.000000 794.000000,1025.000000 678.000000,1025.000000 
M273.596588,283.499725 
	C273.596588,368.821198 273.551025,454.142761 273.671692,539.464050 
	C273.682953,547.427734 274.182953,555.477905 275.411987,563.338440 
	C283.228546,613.331360 332.109924,663.592041 394.976135,662.935486 
	C453.961884,662.319397 512.962036,663.111084 571.949036,662.556030 
	C584.443970,662.438477 597.344849,660.636475 609.308655,657.084351 
	C649.321960,645.204102 692.377991,601.897339 692.124756,543.773560 
	C692.000610,515.277893 692.106262,486.781219 692.107910,458.284973 
	C692.107971,456.542755 692.107849,454.800537 692.107849,452.803955 
	C695.414185,452.803955 697.904907,452.821136 700.395447,452.801178 
	C720.053162,452.643738 739.769775,453.381775 759.354614,452.103149 
	C788.011353,450.232269 810.343323,426.624908 810.889221,398.004211 
	C811.496155,366.188873 811.590454,334.343750 810.963379,302.530212 
	C810.283630,268.043213 785.088196,244.137222 750.511597,244.123917 
	C643.192444,244.082626 535.873352,244.107483 428.554199,244.118469 
	C426.948456,244.118637 425.342712,244.269852 423.324738,244.371292 
	C423.324738,246.178925 423.324738,247.649979 423.324738,249.121017 
	C423.324738,269.784943 423.410492,290.449585 423.239288,311.112122 
	C423.211151,314.513000 424.397156,316.518646 426.981262,318.543701 
	C443.496277,331.485657 459.824829,344.665588 476.344940,357.600922 
	C481.345612,361.516449 483.655273,366.257751 483.639618,372.616058 
	C483.538818,413.610382 483.628265,454.605164 483.566467,495.599640 
	C483.546844,508.623505 479.059235,512.986694 466.053497,512.992737 
	C427.891876,513.010559 389.730255,513.009888 351.568634,512.993225 
	C338.141113,512.987427 333.904785,508.761627 333.898743,495.347473 
	C333.880524,454.686188 333.993591,414.024414 333.794830,373.364105 
	C333.760681,366.375671 336.147034,361.359802 341.610657,357.110107 
	C358.047058,344.325470 374.238770,331.226532 390.634125,318.388428 
	C393.111237,316.448761 394.103424,314.475159 394.081055,311.300629 
	C393.934418,290.471069 394.011627,269.639984 393.991974,248.809433 
	C393.990631,247.370178 393.796478,245.931122 393.682922,244.366852 
	C353.570068,244.366852 313.821625,244.366852 273.596558,244.366852 
	C273.596558,257.246338 273.596558,269.873016 273.596588,283.499725 
M305.500275,721.589722 
	C294.925171,721.589722 284.350067,721.589722 274.005615,721.589722 
	C274.005615,742.168335 274.005615,761.891541 274.005615,781.582764 
	C433.635742,781.582764 592.856262,781.582764 752.093506,781.582764 
	C752.093506,761.521423 752.093506,741.770691 752.093506,721.589722 
	C603.355896,721.589722 454.928101,721.589722 305.500275,721.589722 
z" />
  <path fill="#FFFEFE" opacity="1.000000" stroke="none" d="
M273.596558,282.999695 
	C273.596558,269.873016 273.596558,257.246338 273.596558,244.366852 
	C313.821625,244.366852 353.570068,244.366852 393.682922,244.366852 
	C393.796478,245.931122 393.990631,247.370178 393.991974,248.809433 
	C394.011627,269.639984 393.934418,290.471069 394.081055,311.300629 
	C394.103424,314.475159 393.111237,316.448761 390.634125,318.388428 
	C374.238770,331.226532 358.047058,344.325470 341.610657,357.110107 
	C336.147034,361.359802 333.760681,366.375671 333.794830,373.364105 
	C333.993591,414.024414 333.880524,454.686188 333.898743,495.347473 
	C333.904785,508.761627 338.141113,512.987427 351.568634,512.993225 
	C389.730255,513.009888 427.891876,513.010559 466.053497,512.992737 
	C479.059235,512.986694 483.546844,508.623505 483.566467,495.599640 
	C483.628265,454.605164 483.538818,413.610382 483.639618,372.616058 
	C483.655273,366.257751 481.345612,361.516449 476.344940,357.600922 
	C459.824829,344.665588 443.496277,331.485657 426.981262,318.543701 
	C424.397156,316.518646 423.211151,314.513000 423.239288,311.112122 
	C423.410492,290.449585 423.324738,269.784943 423.324738,249.121017 
	C423.324738,247.649979 423.324738,246.178925 423.324738,244.371292 
	C425.342712,244.269852 426.948456,244.118637 428.554199,244.118469 
	C535.873352,244.107483 643.192444,244.082626 750.511597,244.123917 
	C785.088196,244.137222 810.283630,268.043213 810.963379,302.530212 
	C811.590454,334.343750 811.496155,366.188873 810.889221,398.004211 
	C810.343323,426.624908 788.011353,450.232269 759.354614,452.103149 
	C739.769775,453.381775 720.053162,452.643738 700.395447,452.801178 
	C697.904907,452.821136 695.414185,452.803955 692.107849,452.803955 
	C692.107849,454.800537 692.107971,456.542755 692.107910,458.284973 
	C692.106262,486.781219 692.000610,515.277893 692.124756,543.773560 
	C692.377991,601.897339 649.321960,645.204102 609.308655,657.084351 
	C597.344849,660.636475 584.443970,662.438477 571.949036,662.556030 
	C512.962036,663.111084 453.961884,662.319397 394.976135,662.935486 
	C332.109924,663.592041 283.228546,613.331360 275.411987,563.338440 
	C274.182953,555.477905 273.682953,547.427734 273.671692,539.464050 
	C273.551025,454.142761 273.596588,368.821198 273.596558,282.999695 
M752.404724,389.146912 
	C752.404724,361.050964 752.404724,332.955017 752.404724,304.842712 
	C731.980469,304.842712 712.141357,304.842712 692.405640,304.842712 
	C692.405640,334.698761 692.405640,364.111938 692.405640,393.525330 
	C693.155396,393.725189 693.619812,393.956696 694.084656,393.957397 
	C712.405457,393.984955 730.726807,393.922943 749.046570,394.065338 
	C752.263062,394.090363 752.616150,392.519318 752.404724,389.146912 
z" />
  <path fill="#FFFEFE" opacity="1.000000" stroke="none" d="
M306.000305,721.589722 
	C454.928101,721.589722 603.355896,721.589722 752.093506,721.589722 
	C752.093506,741.770691 752.093506,761.521423 752.093506,781.582764 
	C592.856262,781.582764 433.635742,781.582764 274.005615,781.582764 
	C274.005615,761.891541 274.005615,742.168335 274.005615,721.589722 
	C284.350067,721.589722 294.925171,721.589722 306.000305,721.589722 
z" />
  <path fill="#FF0307" opacity="1.000000" stroke="none" d="
M752.404480,389.609650 
	C752.616150,392.519318 752.263062,394.090363 749.046570,394.065338 
	C730.726807,393.922943 712.405457,393.984955 694.084656,393.957397 
	C693.619812,393.956696 693.155396,393.725189 692.405640,393.525330 
	C692.405640,364.111938 692.405640,334.698761 692.405640,304.842712 
	C712.141357,304.842712 731.980469,304.842712 752.404724,304.842712 
	C752.404724,332.955017 752.404724,361.050964 752.404480,389.609650 
z" />
</svg>